<?xml version="1.0" encoding="UTF-8"?><svg id="_圖層_1" xmlns="http://www.w3.org/2000/svg" viewBox="0 0 100 33.33"><defs><style>.cls-1{fill:#303030;stroke-width:0px;}</style></defs><path class="cls-1" d="M45.67,19.37c-.94,1.61-1.8,3.27-2.98,4.64-1.44,1.66-3.06,3.28-5.6,3.05-.75-.07-1.19-.52-1.64-1.14-.92-1.24-1.45-2.51-.99-4.04.47-1.54,1.26-2.89,2.37-4.07,1.48-1.58,3.43-1.99,5.41-2.39.65-.13,1.58-.12,1.81-.66.37-.87.53-1.89.27-2.88-.02-.07-.06-.13-.07-.19-.32-2.6-1.72-2.56-3.83-1.9-.86.27-1.75.32-2.54.89-.43.31-.7.69-1.01,1.06-1.62,1.93-3.14,3.94-4.57,6.02-.75,1.09-.96,2.45-1.84,3.52-1.07,1.3-1.69,2.93-2.98,4.08-.69.61-1.02,1.49-1.73,2.17-1.64,1.55-4.42,1.01-5.9-.48-.11-.11-.23-.22-.38-.37-.26.62-.8.98-1.3,1.37-.43.33-.78.69-1.45.44-.37-.14-.79.25-1.16.47-1.64,1-3.54,1.01-5.32,1.49-1.64.45-3.26.4-4.91.39-.53,0-.91-.42-1.39-.55-1.76-.45-2.3-1.87-2.7-3.36-.22-.83-.03-1.68.1-2.53.3-1.91,1.03-3.58,2.26-5.09,1.03-1.27,2.33-1.95,3.85-2.35.51-.13.84.26,1.14.54.34.32.17.8,0,1.13-.55.99-1.09,1.99-2.12,2.62-1.49.91-1.81,2.45-1.89,4.03-.05.92.82,1.74,2.08,1.8,3,.16,5.91-.19,8.41-2.11.64-.49,1.31-.96,2-1.38.67-.4.79-1.01.58-1.63-.61-1.79-.33-3.56.13-5.3.35-1.3.3-2.63.61-3.95.76-3.14,2.03-5.86,4.56-8,1.38-1.16,2.75-2.06,4.59-2.22,1.52-.13,2.45.8,2.38,2.29-.14,3.01-1.24,5.76-2.13,8.58-.71,2.26-2.04,4.18-3.03,6.29-.73,1.56-1.76,2.9-2.86,4.2-.48.57-.3.81.34,1.01,1.48.47,2.61-.17,3.52-1.2,1.16-1.33,2.28-2.72,3.05-4.34,1.04-2.18,2.37-4.19,3.45-6.35,1.13-2.24,3.04-3.97,5.25-5.31,1.37-.83,2.87-1.36,4.33-1.98,1.17-.49,4.31.81,4.73,2.03.63,1.82.93,3.69.43,5.62-.2.77-.13,1.59-.49,2.33-.12.25-.04.51.14.76q1.2,1.63,1.39,3.14c1.35-.6,2.48-1.64,4.02-1.82.36-.04.78-.1,1.17-.19.64-.16,1.43-.02,1.74.5.38.63-.23,1.3-.59,1.82-.29.41-.97.25-1.46.39-2.09.57-3.72,1.72-5.07,3.38-1.09,1.33-2.27,2.59-3.39,3.9-.4.47-.75.48-1.01-.06-.29-.61-.49-1.21.03-1.89.37-.48.61-1.11.72-1.7.09-.5.37-.8.62-1.17.69-1.01,1-2.13.82-3.36ZM19.6,20.48c.93-.7,1.57-1.56,2.23-2.48,1.06-1.47,2.01-2.95,2.61-4.68.79-2.28,1.86-4.48,2.01-6.95.02-.34.05-.57-.25-.75-.33-.2-.45.1-.66.27-.61.49-1.09,1.08-1.59,1.66-.46.53-.43,1.28-1.02,1.69-.88.61-1.29,1.55-1.71,2.48-.7,1.56-.81,3.27-1.24,4.89-.34,1.28-.55,2.54-.38,3.86ZM42.98,18.12c-2.61,1.43-4.66,3.03-5.91,5.75,2.77-1.15,4.63-2.94,5.91-5.75Z"/><path class="cls-1" d="M60.36,18.28c-.56.36-.03,1.42-.98,1.56-.39.06-1.38-1.39-1.27-1.83.18-.73.77-.63,1.3-.55.44.06.92.13.94.82Z"/><path class="cls-1" d="M64.58,16.67c-.37,0-.53-.25-.53-.47v-3.88c0-.21.15-.47.53-.47h.94c.85,0,1.46.57,1.46,1.32v2.18c0,.74-.62,1.32-1.46,1.32h-.94ZM65.51,15.73c.23,0,.46-.16.46-.49v-1.94c0-.33-.23-.49-.46-.49h-.46v2.93h.46Z"/><path class="cls-1" d="M67.72,12.32c0-.21.15-.47.53-.47h1.57c.37,0,.52.25.52.47s-.15.47-.52.47h-1.1v.96h.82c.37,0,.53.25.53.47,0,.23-.16.47-.53.47h-.82v1.02h1.1c.37,0,.52.25.52.47s-.15.47-.52.47h-1.57c-.37,0-.53-.25-.53-.47v-3.88Z"/><path class="cls-1" d="M70.77,15.67l-.04-.17c-.08-.39.15-.66.46-.66.23,0,.42.15.49.45l.04.18c.05.25.23.35.45.35.27,0,.45-.15.45-.42,0-.21-.13-.39-.27-.5l-.85-.65c-.31-.23-.66-.54-.66-1.15,0-.78.59-1.31,1.4-1.31.62,0,1.38.33,1.38,1.16v.03c0,.23-.17.44-.47.44-.28,0-.41-.19-.47-.37l-.03-.08c-.07-.21-.25-.27-.4-.27-.25,0-.4.16-.4.38,0,.21.12.34.2.4l1.07.81c.15.11.51.44.51,1.08,0,.86-.63,1.37-1.44,1.37s-1.29-.47-1.42-1.06Z"/><path class="cls-1" d="M75.29,16.23c0,.24-.15.51-.5.51s-.5-.27-.5-.51v-3.93c0-.24.16-.51.5-.51s.5.27.5.51v3.93Z"/><path class="cls-1" d="M78.46,13.86c.34,0,.5.21.5.45v1.09c0,.76-.65,1.33-1.45,1.33s-1.48-.57-1.48-1.33v-2.3c0-.74.65-1.32,1.44-1.32.67,0,1.42.35,1.42,1.12v.04c0,.23-.17.47-.51.47s-.41-.19-.48-.41l-.02-.07c-.05-.15-.19-.21-.4-.21-.26,0-.44.19-.44.51v2.02c0,.33.19.51.46.51s.45-.18.45-.51v-.47h-.18c-.25-.04-.39-.25-.39-.45,0-.22.15-.47.52-.47h.55Z"/><path class="cls-1" d="M81.69,12.3c0-.24.15-.51.5-.51s.49.27.49.51v3.86c0,.35-.17.58-.51.58-.23,0-.42-.11-.54-.4l-1-2.09h-.03c.04.49.05.96.05,1.32v.67c0,.24-.15.51-.5.51s-.5-.27-.5-.51v-3.86c0-.35.17-.58.51-.58.23,0,.41.11.54.4l1,2.07h.03c-.04-.48-.03-.93-.03-1.29v-.67Z"/><path class="cls-1" d="M85.4,16.67c-.37,0-.53-.25-.53-.47v-3.88c0-.21.15-.47.53-.47h.8c.92,0,1.56.54,1.56,1.26v.05c0,.38-.16.69-.52.95.41.19.59.57.59,1.06v.05c0,.83-.64,1.44-1.55,1.44h-.88ZM86.2,13.72c.3,0,.55-.13.55-.44v-.04c0-.29-.25-.44-.55-.44h-.33v.92h.33ZM86.27,15.73c.31,0,.55-.17.55-.53v-.04c0-.33-.27-.49-.55-.49h-.4v1.06h.4Z"/><path class="cls-1" d="M90.12,12.16c.14-.29.33-.37.48-.37.25,0,.7.23.44.76l-.94,1.91v1.77c0,.24-.15.51-.5.51s-.51-.27-.51-.51v-1.77l-.93-1.91c-.23-.47.13-.76.45-.76.17,0,.32.07.47.37l.51,1.1.52-1.1Z"/><path class="cls-1" d="M65.76,20.17c.14-.29.33-.37.48-.37.25,0,.7.23.44.76l-.94,1.91v1.77c0,.24-.15.51-.5.51s-.51-.27-.51-.51v-1.77l-.93-1.91c-.23-.47.13-.76.45-.76.17,0,.32.07.47.37l.51,1.1.52-1.1Z"/><path class="cls-1" d="M70.22,23.42c0,.75-.67,1.33-1.46,1.33s-1.46-.58-1.46-1.33v-3.11c0-.24.16-.51.5-.51s.49.27.49.51v2.99c0,.35.22.49.47.49.23,0,.45-.15.45-.49v-2.99c0-.24.16-.51.5-.51s.51.27.51.51v3.11Z"/><path class="cls-1" d="M72.2,23.68l-.04-.17c-.08-.39.15-.66.46-.66.23,0,.42.15.49.45l.04.18c.05.25.23.35.45.35.27,0,.45-.15.45-.42,0-.21-.13-.39-.27-.5l-.85-.66c-.31-.23-.66-.54-.66-1.15,0-.78.59-1.31,1.4-1.31.62,0,1.38.33,1.38,1.16v.03c0,.23-.17.44-.47.44-.28,0-.41-.19-.47-.37l-.03-.08c-.07-.21-.25-.27-.4-.27-.25,0-.4.16-.4.38,0,.21.12.34.2.4l1.07.81c.15.11.51.44.51,1.08,0,.86-.63,1.37-1.44,1.37s-1.29-.47-1.42-1.06Z"/><path class="cls-1" d="M78.75,24.24c0,.24-.16.51-.5.51s-.5-.27-.5-.51v-1.52h-1.03v1.52c0,.24-.15.51-.5.51s-.5-.27-.5-.51v-3.93c0-.24.16-.51.5-.51s.5.27.5.51v1.46h1.03v-1.46c0-.24.16-.51.5-.51s.5.27.5.51v3.93Z"/><path class="cls-1" d="M82.48,23.42c0,.75-.67,1.33-1.46,1.33s-1.46-.58-1.46-1.33v-3.11c0-.24.16-.51.5-.51s.49.27.49.51v2.99c0,.35.22.49.47.49.23,0,.45-.15.45-.49v-2.99c0-.24.16-.51.5-.51s.51.27.51.51v3.11Z"/><path class="cls-1" d="M83.9,24.38c-.09.29-.32.37-.49.37-.29,0-.58-.23-.45-.66l1.17-3.91c.08-.27.33-.38.51-.38.21,0,.44.12.51.38l1.17,3.91c.12.39-.15.66-.45.66-.17,0-.41-.08-.5-.37l-.08-.26h-1.32l-.07.26ZM84.24,23.22h.8l-.17-.6c-.07-.25-.15-.57-.2-.93h-.03c-.07.36-.14.67-.21.93l-.17.6Z"/><path class="cls-1" d="M88.93,20.31c0-.24.15-.51.5-.51s.49.27.49.51v3.86c0,.35-.17.58-.51.58-.23,0-.42-.11-.54-.4l-1-2.09h-.03c.04.49.05.96.05,1.32v.67c0,.24-.15.51-.5.51s-.5-.27-.5-.51v-3.86c0-.35.17-.58.51-.58.23,0,.41.11.54.4l1,2.07h.03c-.04-.48-.03-.93-.03-1.29v-.67Z"/><path class="cls-1" d="M92.61,24.68c-.34,0-.49-.21-.49-.45v-3.92c0-.24.16-.51.5-.51s.5.27.5.51v3.43h1.01c.36,0,.52.25.52.47s-.16.47-.52.47h-1.52Z"/><path class="cls-1" d="M97.97,23.42c0,.75-.67,1.33-1.46,1.33s-1.46-.58-1.46-1.33v-3.11c0-.24.16-.51.5-.51s.49.27.49.51v2.99c0,.35.22.49.47.49.23,0,.45-.15.45-.49v-2.99c0-.24.16-.51.5-.51s.51.27.51.51v3.11Z"/></svg>