<?xml version="1.0" encoding="UTF-8"?><svg id="_圖層_1" xmlns="http://www.w3.org/2000/svg" viewBox="0 0 250 83.33"><defs><style>.cls-1{fill:#fff;stroke-width:0px;}</style></defs><path class="cls-1" d="M114.45,48.64c-2.36,4.01-4.49,8.16-7.45,11.58-3.6,4.16-7.66,8.21-14,7.63-1.88-.17-2.97-1.3-4.11-2.84-2.29-3.11-3.63-6.28-2.48-10.09,1.16-3.85,3.15-7.21,5.93-10.18,3.69-3.95,8.58-4.98,13.53-5.97,1.63-.33,3.96-.31,4.53-1.66.91-2.17,1.32-4.72.68-7.2-.04-.16-.14-.32-.16-.48-.79-6.49-4.3-6.41-9.57-4.74-2.15.68-4.38.8-6.36,2.22-1.07.77-1.75,1.73-2.53,2.66-4.05,4.83-7.84,9.86-11.41,15.05-1.87,2.72-2.4,6.13-4.59,8.79-2.67,3.24-4.22,7.33-7.46,10.2-1.73,1.53-2.54,3.74-4.31,5.41-4.1,3.89-11.04,2.52-14.74-1.19-.28-.28-.57-.56-.94-.92-.66,1.55-2,2.45-3.26,3.43-1.06.83-1.95,1.71-3.61,1.09-.92-.34-1.98.62-2.9,1.18-4.09,2.5-8.85,2.52-13.29,3.74-4.09,1.11-8.16,1.01-12.27.98-1.33,0-2.28-1.06-3.46-1.36-4.4-1.12-5.75-4.68-6.75-8.41-.55-2.06-.08-4.2.26-6.33.76-4.77,2.57-8.95,5.65-12.73,2.57-3.16,5.83-4.88,9.62-5.87,1.27-.33,2.09.66,2.84,1.35.86.8.43,2.01-.02,2.83-1.36,2.48-2.73,4.97-5.31,6.54-3.73,2.28-4.52,6.11-4.71,10.07-.11,2.31,2.06,4.34,5.21,4.5,7.51.39,14.77-.47,21.01-5.28,1.6-1.23,3.26-2.4,4.99-3.44,1.68-1.01,1.98-2.52,1.44-4.08-1.53-4.48-.83-8.9.33-13.25.87-3.25.74-6.58,1.54-9.87,1.9-7.84,5.08-14.66,11.4-20.01,3.44-2.91,6.87-5.16,11.47-5.54,3.79-.32,6.12,2,5.95,5.73-.35,7.53-3.09,14.39-5.31,21.45-1.78,5.66-5.11,10.45-7.56,15.71-1.82,3.9-4.4,7.25-7.14,10.51-1.19,1.42-.74,2.03.85,2.53,3.7,1.17,6.54-.43,8.79-3.01,2.91-3.33,5.7-6.8,7.63-10.84,2.6-5.44,5.91-10.48,8.63-15.88,2.82-5.6,7.61-9.92,13.12-13.27,3.43-2.09,7.17-3.4,10.82-4.94,2.92-1.23,10.76,2.03,11.82,5.07,1.58,4.54,2.32,9.23,1.07,14.05-.5,1.92-.33,3.97-1.21,5.83-.29.62-.1,1.27.36,1.89q3,4.08,3.48,7.86c3.38-1.5,6.2-4.1,10.05-4.56.9-.11,1.95-.24,2.91-.48,1.6-.39,3.57-.05,4.36,1.25.94,1.58-.56,3.25-1.47,4.55-.72,1.02-2.42.64-3.65.97-5.22,1.42-9.29,4.31-12.67,8.45-2.72,3.33-5.68,6.48-8.47,9.76-1.01,1.18-1.87,1.2-2.52-.15-.73-1.53-1.22-3.03.08-4.72.91-1.19,1.52-2.76,1.79-4.25.22-1.24.92-2,1.55-2.93,1.72-2.53,2.51-5.32,2.05-8.39ZM49.31,51.4c2.31-1.74,3.93-3.91,5.58-6.2,2.65-3.68,5.02-7.38,6.52-11.7,1.98-5.71,4.65-11.19,5.03-17.37.05-.85.11-1.43-.63-1.87-.84-.49-1.13.26-1.65.68-1.51,1.22-2.72,2.69-3.98,4.16-1.14,1.32-1.06,3.21-2.54,4.23-2.2,1.52-3.22,3.88-4.27,6.21-1.76,3.9-2.03,8.17-3.1,12.23-.85,3.21-1.37,6.34-.95,9.64ZM107.73,45.51c-6.52,3.57-11.65,7.56-14.78,14.37,6.92-2.88,11.58-7.35,14.78-14.37Z"/><path class="cls-1" d="M151.18,45.9c-1.41.89-.07,3.56-2.44,3.9-.99.14-3.46-3.46-3.18-4.57.46-1.83,1.93-1.57,3.26-1.38,1.11.15,2.31.33,2.36,2.05Z"/><path class="cls-1" d="M161.71,41.88c-.94,0-1.32-.63-1.32-1.17v-9.69c0-.53.38-1.17,1.32-1.17h2.34c2.12,0,3.66,1.42,3.66,3.29v5.45c0,1.85-1.54,3.29-3.66,3.29h-2.34ZM164.05,39.52c.57,0,1.15-.4,1.15-1.24v-4.86c0-.82-.58-1.22-1.15-1.22h-1.15v7.32h1.15Z"/><path class="cls-1" d="M169.57,31.02c0-.53.38-1.17,1.32-1.17h3.93c.92,0,1.3.63,1.3,1.17s-.38,1.19-1.3,1.19h-2.74v2.41h2.04c.92,0,1.32.63,1.32,1.17,0,.57-.4,1.19-1.32,1.19h-2.04v2.56h2.74c.92,0,1.3.63,1.3,1.17s-.38,1.19-1.3,1.19h-3.93c-.94,0-1.32-.63-1.32-1.17v-9.69Z"/><path class="cls-1" d="M177.19,39.39l-.1-.42c-.2-.98.37-1.65,1.15-1.65.58,0,1.05.38,1.24,1.12l.1.45c.13.63.58.88,1.14.88.67,0,1.14-.38,1.14-1.05,0-.52-.32-.97-.69-1.25l-2.12-1.64c-.77-.58-1.65-1.35-1.65-2.87,0-1.94,1.47-3.27,3.49-3.27,1.55,0,3.44.83,3.44,2.89v.07c0,.58-.43,1.1-1.19,1.1-.7,0-1.02-.47-1.17-.92l-.08-.2c-.18-.53-.62-.67-1-.67-.63,0-1,.4-1,.95,0,.52.3.85.5,1l2.67,2.02c.37.28,1.27,1.1,1.27,2.69,0,2.14-1.59,3.42-3.59,3.42s-3.22-1.17-3.54-2.66Z"/><path class="cls-1" d="M188.49,40.78c0,.6-.38,1.27-1.25,1.27s-1.25-.67-1.25-1.27v-9.82c0-.6.4-1.27,1.25-1.27s1.25.67,1.25,1.27v9.82Z"/><path class="cls-1" d="M196.4,34.86c.85,0,1.25.53,1.25,1.14v2.72c0,1.89-1.64,3.32-3.62,3.32s-3.69-1.44-3.69-3.32v-5.75c0-1.85,1.62-3.29,3.59-3.29,1.67,0,3.56.89,3.56,2.81v.1c0,.58-.42,1.17-1.27,1.17s-1.03-.48-1.2-1.02l-.05-.17c-.12-.37-.47-.53-1-.53-.65,0-1.1.47-1.1,1.29v5.04c0,.83.48,1.29,1.15,1.29s1.13-.45,1.13-1.29v-1.19h-.45c-.63-.1-.99-.63-.99-1.14,0-.55.38-1.19,1.3-1.19h1.39Z"/><path class="cls-1" d="M204.48,30.95c0-.6.38-1.27,1.25-1.27s1.23.67,1.23,1.27v9.64c0,.87-.43,1.45-1.27,1.45-.57,0-1.05-.28-1.35-1l-2.51-5.23h-.08c.1,1.22.12,2.41.12,3.29v1.67c0,.6-.38,1.27-1.25,1.27s-1.25-.67-1.25-1.27v-9.64c0-.88.43-1.45,1.27-1.45.58,0,1.03.28,1.35,1l2.49,5.16h.08c-.1-1.2-.08-2.32-.08-3.22v-1.67Z"/><path class="cls-1" d="M213.75,41.88c-.94,0-1.32-.63-1.32-1.17v-9.69c0-.53.38-1.17,1.32-1.17h2c2.29,0,3.89,1.35,3.89,3.16v.12c0,.95-.4,1.74-1.3,2.37,1.04.48,1.47,1.42,1.47,2.64v.13c0,2.07-1.6,3.61-3.87,3.61h-2.19ZM215.75,34.51c.75,0,1.39-.33,1.39-1.1v-.1c0-.73-.63-1.1-1.39-1.1h-.82v2.31h.82ZM215.94,39.52c.77,0,1.37-.42,1.37-1.32v-.1c0-.84-.68-1.22-1.37-1.22h-1v2.64h1Z"/><path class="cls-1" d="M225.55,30.62c.35-.72.83-.94,1.2-.94.63,0,1.74.58,1.1,1.89l-2.35,4.78v4.43c0,.6-.38,1.27-1.25,1.27s-1.27-.67-1.27-1.27v-4.43l-2.32-4.78c-.57-1.17.32-1.89,1.12-1.89.42,0,.8.18,1.19.94l1.29,2.76,1.3-2.76Z"/><path class="cls-1" d="M164.67,50.64c.35-.72.83-.94,1.2-.94.63,0,1.74.58,1.1,1.89l-2.36,4.78v4.43c0,.6-.38,1.27-1.25,1.27s-1.27-.67-1.27-1.27v-4.43l-2.32-4.78c-.57-1.17.32-1.89,1.12-1.89.42,0,.8.18,1.19.94l1.29,2.76,1.3-2.76Z"/><path class="cls-1" d="M175.82,58.74c0,1.87-1.67,3.32-3.66,3.32s-3.66-1.45-3.66-3.32v-7.77c0-.6.4-1.27,1.25-1.27s1.24.67,1.24,1.27v7.47c0,.87.55,1.24,1.17,1.24.58,0,1.14-.37,1.14-1.24v-7.47c0-.6.4-1.27,1.25-1.27s1.27.67,1.27,1.27v7.77Z"/><path class="cls-1" d="M180.76,59.41l-.1-.42c-.2-.98.37-1.65,1.15-1.65.58,0,1.05.38,1.24,1.12l.1.45c.13.63.58.88,1.14.88.67,0,1.14-.38,1.14-1.05,0-.52-.32-.97-.69-1.25l-2.12-1.64c-.77-.58-1.65-1.35-1.65-2.87,0-1.94,1.47-3.27,3.49-3.27,1.55,0,3.44.84,3.44,2.89v.07c0,.58-.43,1.1-1.19,1.1-.7,0-1.02-.47-1.17-.92l-.08-.2c-.18-.53-.62-.67-1-.67-.63,0-1,.4-1,.95,0,.52.3.85.5,1l2.67,2.02c.37.28,1.27,1.1,1.27,2.69,0,2.14-1.59,3.42-3.59,3.42s-3.22-1.17-3.54-2.66Z"/><path class="cls-1" d="M197.14,60.8c0,.6-.4,1.27-1.25,1.27s-1.25-.67-1.25-1.27v-3.79h-2.57v3.79c0,.6-.38,1.27-1.25,1.27s-1.25-.67-1.25-1.27v-9.82c0-.6.4-1.27,1.25-1.27s1.25.67,1.25,1.27v3.66h2.57v-3.66c0-.6.4-1.27,1.25-1.27s1.25.67,1.25,1.27v9.82Z"/><path class="cls-1" d="M206.45,58.74c0,1.87-1.67,3.32-3.66,3.32s-3.66-1.45-3.66-3.32v-7.77c0-.6.4-1.27,1.25-1.27s1.24.67,1.24,1.27v7.47c0,.87.55,1.24,1.17,1.24.58,0,1.14-.37,1.14-1.24v-7.47c0-.6.4-1.27,1.25-1.27s1.27.67,1.27,1.27v7.77Z"/><path class="cls-1" d="M210.01,61.15c-.23.72-.8.92-1.23.92-.74,0-1.45-.58-1.14-1.64l2.92-9.77c.2-.68.82-.95,1.29-.95.52,0,1.1.3,1.29.95l2.92,9.77c.3.99-.37,1.64-1.12,1.64-.43,0-1.03-.2-1.25-.92l-.2-.65h-3.29l-.18.65ZM210.85,58.26h1.99l-.43-1.5c-.18-.63-.37-1.42-.5-2.32h-.08c-.17.9-.35,1.69-.53,2.32l-.43,1.5Z"/><path class="cls-1" d="M222.58,50.98c0-.6.38-1.27,1.25-1.27s1.23.67,1.23,1.27v9.64c0,.87-.43,1.45-1.27,1.45-.57,0-1.05-.28-1.35-1l-2.51-5.23h-.08c.1,1.22.12,2.41.12,3.29v1.67c0,.6-.38,1.27-1.25,1.27s-1.25-.67-1.25-1.27v-9.64c0-.89.43-1.45,1.27-1.45.58,0,1.04.28,1.35,1l2.49,5.16h.08c-.1-1.2-.08-2.32-.08-3.22v-1.67Z"/><path class="cls-1" d="M231.77,61.9c-.85,0-1.23-.53-1.23-1.12v-9.81c0-.6.4-1.27,1.25-1.27s1.25.67,1.25,1.27v8.57h2.52c.9,0,1.3.63,1.3,1.17s-.4,1.19-1.3,1.19h-3.79Z"/><path class="cls-1" d="M245.16,58.74c0,1.87-1.67,3.32-3.66,3.32s-3.66-1.45-3.66-3.32v-7.77c0-.6.4-1.27,1.25-1.27s1.24.67,1.24,1.27v7.47c0,.87.55,1.24,1.17,1.24.58,0,1.14-.37,1.14-1.24v-7.47c0-.6.4-1.27,1.25-1.27s1.27.67,1.27,1.27v7.77Z"/></svg>